<?xml version="1.0" encoding="UTF-8"?>
<svg viewBox="0 0 744.09448819 1052.3622047" xmlns="http://www.w3.org/2000/svg" xmlns:xlink="http://www.w3.org/1999/xlink">
 <defs>
  <linearGradient id="f" x1="338.27" x2="375.35" y1="451.75" y2="482.85" gradientUnits="userSpaceOnUse">
   <stop stop-color="#ddd" offset="0"/>
   <stop stop-color="#919191" offset="1"/>
  </linearGradient>
  <linearGradient id="e" x1="342.19" x2="371.58" y1="427.25" y2="454.72" gradientUnits="userSpaceOnUse">
   <stop stop-color="#ffdadc" offset="0"/>
   <stop stop-color="#ff7a84" stop-opacity="0" offset="1"/>
  </linearGradient>
  <linearGradient id="a">
   <stop stop-color="#b36c31" offset="0"/>
   <stop stop-color="#ddab82" stop-opacity="0" offset="1"/>
  </linearGradient>
  <linearGradient id="b" x1="211.57" x2="217.34" y1="616.7" y2="620.34" gradientUnits="userSpaceOnUse">
   <stop offset="0"/>
   <stop stop-color="#878787" offset=".5"/>
   <stop offset="1"/>
  </linearGradient>
  <linearGradient id="d" x1="249.53" x2="223.3" y1="610.43" y2="581.2" gradientUnits="userSpaceOnUse" xlink:href="#a"/>
  <linearGradient id="c" x1="261.23" x2="240.84" y1="619.33" y2="588.16" gradientUnits="userSpaceOnUse" xlink:href="#a"/>
 </defs>
 <g transform="matrix(1.4448 1.0193 -1.4516 1.0146 720.16 -333.5)">
  <path d="m360.97 423.12c-3.5224 0.0375-6.5378 0.78614-9.0312 2.6562-2.8708 2.1531-5.3576 5.4348-7.7812 8.6875s-4.6909 6.5512-5.375 7.4062c-0.21628 0.23521-0.73071 0.77867-1.2812 1.3438-0.88086 0.90413-2.1308 2.1764-3.6875 3.75-3.1134 3.1472-7.4626 7.5134-12.625 12.688-10.325 10.348-23.915 23.914-37.438 37.406-27.046 26.984-53.844 53.656-53.844 53.656l-0.65625 0.65625-0.3125 0.90625-28.312 82.875-2.7188 8 7.9375-2.875 89.344-32.25 1.125-0.4375 0.75-0.96875 88.531-118.19 0.125-0.15625c0.18-0.19225 0.40805-0.44796 0.78125-0.84375 0.88977-0.94362 2.251-2.3801 3.9062-4.2812 3.3105-3.8024 7.8584-9.4383 12.688-16.75 3.3671-5.098 2.0179-11.508-1.0938-17.375s-8.2878-11.751-14.906-16.781c-6.7836-5.1555-14.004-7.7531-20.188-8.6562-1.5458-0.22579-3.0081-0.37825-4.4062-0.4375-0.52431-0.0222-1.0281-0.0366-1.5312-0.0312z"/>
  <path d="m204.47 636.47 28.289-82.881s107.2-106.7 109.18-109.18 8.437-12.407 12.407-15.385 17.867-2.9778 30.274 6.4518 19.345 22.255 15.087 28.702c-9.4209 14.264-17.795 21.996-17.37 21.837l-88.538 118.2-89.333 32.259z" fill="#ffc500"/>
  <path d="m362.41 427.25c-3.6786-0.0611-6.5736 0.66459-8.0625 1.7812-3.8433 2.8825-9.9648 12.214-12.156 15.062 7.0437 0.63976 19.219 3.2485 29.406 13.219 10.192 9.9754 13.298 19.216 14.25 24.875 3.2416-3.5987 8.3527-9.67 13.875-18.031 4.258-6.4471-2.6864-19.258-15.094-28.688-7.7546-5.8935-16.088-8.117-22.219-8.2188z" fill="#ff7a84"/>
  <path d="m337.14 457.37-98.7 101.73 6.6607 0.60553 96.883-101.12-4.8442-1.211z" fill="#fff"/>
  <path d="m240.56 553.66c-2.2273 0.0147-4.8284 0.16888-8.0312 0.5625l-28.062 82.25 89.344-32.25 0.78125-1.0312c-0.1663-5.2336-1.1507-11.538-5.875-12.438-6.8509-1.3049-19.241-3.2627-23.156-8.1562s-5.2263-10.766-6.5312-16.312-7.5127-12.08-12.406-12.406c-1.8351-0.12234-3.7514-0.23404-6.0625-0.21875z" fill="#ddab82"/>
  <path d="m375.62 461.62-110.16 126.03c1.2156 25.159 26.942-16.188 29.125 15.535l87.75-117.19c-0.17569 0.0659 1.2115-1.2719 3.5-3.8125-0.81277-4.8296-3.2036-12.286-10.219-20.562z" fill="#ffb200"/>
  <path d="m374 490.47-80.344 106.44c0.45243 1.6754 0.76262 3.7396 0.9375 6.2812l82.312-109.94-2.9062-2.7812z" fill="#c79011"/>
  <path d="m342.19 444.09-0.25 0.3125c-0.41603 0.52004-6.0785 6.2667-13.781 14 7.3504 1.3325 17.813 4.8174 27.469 13.844 9.4771 8.859 14.638 18.629 17.438 26.125l9.2812-12.375c-0.17573 0.0659 1.2027-1.2614 3.5-3.8125 5e-3 -5e-3 -5e-3 -0.0262 0-0.0312-0.95791-5.6618-4.0745-14.885-14.25-24.844-10.187-9.9702-22.363-12.579-29.406-13.219z" fill="url(#f)"/>
  <path d="m362.41 427.25c-3.6786-0.0611-6.5736 0.66459-8.0625 1.7812-3.8433 2.8825-9.9648 12.214-12.156 15.062 7.0437 0.63976 19.219 3.2485 29.406 13.219 10.192 9.9754 13.298 19.216 14.25 24.875 3.2416-3.5987 8.3527-9.67 13.875-18.031 4.258-6.4471-2.6864-19.258-15.094-28.688-7.7546-5.8935-16.088-8.117-22.219-8.2188z" fill="url(#e)"/>
  <path d="m240.56 553.66c-2.2273 0.0147-4.8284 0.16888-8.0312 0.5625l-28.062 82.25 89.344-32.25 0.78125-1.0312c-0.1663-5.2336-1.1507-11.538-5.875-12.438-6.8509-1.3049-19.241-3.2627-23.156-8.1562s-5.2263-10.766-6.5312-16.312-7.5127-12.08-12.406-12.406c-1.8351-0.12234-3.7514-0.23404-6.0625-0.21875z" fill="url(#d)"/>
  <path d="m276.5 588.16c-2.5979 1.8379-5.8373 3.8718-9.7188 5.8125-10.671 5.3354-18.3 8.545-25.312 11.594s-8.3826 3.8026-14.938 7.1562-14.031 12.062-14.031 12.062l7.5 6.0938 41.875-15.125c-3.1706 0.0311-7.4527 0.48696-12.938 2-13.262 3.6585-25.312 10.969-25.312 10.969l3.8125-4.25s9.7515-8.8544 19.812-10.531c8.2267-1.3711 16.766-1.3054 24.938-1.9062l21.625-7.8125 0.78125-1.0312c-0.0182-0.5726-0.0521-1.1602-0.0937-1.75-1.9817 1.3338-5.3247 3.0694-10.812 4.5938-10.976 3.0488-20.733 5.1723-28.812 4.5625s13.28-8.6982 20.75-10.375 14.466-3.6357 5.625 0.9375-15.562 5.1562-15.562 5.1562 7.484-0.14329 14.344-2.125 10.655-4.1037 13.094-7c0.22866-0.27153 0.4185-0.56351 0.5625-0.84375-0.26476-0.92684-0.60184-1.7986-1.0312-2.5625-2.2955-0.81496-7.9255-0.3125-19.5 3.6875-20.732 7.1646-23.928 9.327-27.281 11.156s-13.408 8.08-17.219 11.281-4.8849 3.6357-7.7812 5.3125 2.0061-5.4901 17.25-15.094 33.84-15.088 39.938-17.375c1.727-0.64762 3.5762-1.7557 5.375-3-2.2516-0.44571-4.6029-0.94913-6.9375-1.5938z" fill="url(#c)"/>
  <path d="m214.76 611.5c-0.90784-0.0161-1.7055 0.0392-2.3836 0.12663l-8.7292 25.169 27.38-9.7193c-0.8262-2.2761-2.3462-5.5793-5.2182-9.7193-3.2592-4.6982-7.7511-5.7985-11.048-5.8569z" fill="url(#b)"/>
  <path d="m374.19 492.9c3.5484-4.6237 7.7419-10 8.4946-10.968s-0.64516-4.8387-2.5806-2.2581-6.8817 9.1398-7.3118 9.7849 0.10753 5.0538 1.3978 3.4409z" fill="#777"/>
  <path d="m371.26 486.44c3.5484-4.6237 7.7419-10 8.4946-10.968s-0.64516-4.8387-2.5806-2.2581-6.8817 9.1398-7.3118 9.7849 0.10753 5.0538 1.3978 3.4409z" fill="#848484"/>
  <path d="m367.6 479.88c3.5484-4.6237 7.3118-9.6774 8.0645-10.645s-0.86021-4.4086-2.7957-1.828-6.8817 9.1398-7.3118 9.7849 0.75269 4.3011 2.043 2.6882z" fill="#939393"/>
  <path d="m363.2 473.43c3.5484-4.6237 7.4194-9.5699 8.172-10.538s-1.2903-4.3011-3.2258-1.7204-7.0968 9.4624-7.5269 10.108 1.2903 3.7634 2.5806 2.1506z" fill="#a2a2a2"/>
  <path d="m337.71 457.62c3.5484-4.6237 7.8494-8.8172 8.6021-9.785s-2.7957-2.9032-4.7312-0.32258-7.8495 8.3871-8.2796 9.0322 3.1183 2.6882 4.4086 1.0753z" fill="#fff"/>
  <path d="m344.86 460.34c3.5484-4.6237 7.8494-8.8172 8.6021-9.785s-2.7957-2.9032-4.7312-0.32258-7.8495 8.3871-8.2796 9.0322 3.1183 2.6882 4.4086 1.0753z" fill="#ddd"/>
  <path d="m386.34 436.84c2.291 2.8884 4.4584 5.6899 6.0312 7.4375 4.0359 4.4843 4.4922 16.163 2.25 19.75-1.4326 2.2922-6.1742 8.2064-10.062 13 0.63558 1.9268 1.0313 3.6712 1.2812 5.1562 3.2416-3.5987 8.3527-9.67 13.875-18.031 4.0553-6.1401-2.0662-18.046-13.375-27.312z" fill="#e55f69"/>
 </g>
</svg>
